<?xml version="1.0" encoding="utf-8"?>
<!-- Generator: Adobe Illustrator 27.5.0, SVG Export Plug-In . SVG Version: 6.00 Build 0)  -->
<svg version="1.1" id="Layer_1" xmlns="http://www.w3.org/2000/svg" xmlns:xlink="http://www.w3.org/1999/xlink" x="0px" y="0px"
	 viewBox="0 0 293.789 276.758" style="enable-background:new 0 0 293.789 276.758;" xml:space="preserve">
<g>
	<g>
		<g>
			<g>
				<g>
					<path style="fill:#EAE9E9;" d="M284.971,102.125c0,0,7.142,20.533,2.009,45.306c-5.133,24.773-29.684,29.684-29.684,29.684
						s9.82,38.611-31.469,37.272C219.132,191.175,237.042,111.569,284.971,102.125z"/>
					<path style="fill:#C1BFBF;" d="M227.891,214.982c-0.684,0-1.377-0.011-2.081-0.034c-0.243-0.008-0.454-0.172-0.522-0.406
						c-4.107-14.239,0.921-51.734,18.438-80.452c11.072-18.151,25.298-29.395,41.137-32.516c0.272-0.057,0.546,0.103,0.638,0.366
						c0.072,0.206,7.134,20.963,2.029,45.604c-4.715,22.754-25.844,29.05-29.565,29.988c0.638,3.031,3.182,17.731-4.857,27.732
						C247.922,211.718,239.444,214.982,227.891,214.982z M226.258,213.838c12.022,0.306,20.771-2.804,25.971-9.271
						c8.607-10.702,4.566-27.15,4.524-27.314c-0.037-0.149-0.013-0.307,0.068-0.438c0.083-0.129,0.215-0.22,0.366-0.251
						c0.241-0.048,24.247-5.137,29.243-29.247c4.621-22.293-0.84-41.358-1.838-44.542c-15.326,3.192-29.118,14.213-39.907,31.9
						C227.488,162.87,222.411,199.509,226.258,213.838z"/>
				</g>
				<path style="fill:#D3D3D3;" d="M284.971,102.125c-47.929,9.444-65.839,89.05-59.144,112.262
					c4.275,0.139,7.974-0.171,11.22-0.801c0.109-0.25,0.243-0.488,0.348-0.739c3.465-8.383,4.031-17.622,3.652-26.59
					c-0.101-2.401-0.297-4.797-0.488-7.192c-0.108-1.355-0.23-2.71-0.362-4.063c-0.111-1.143-0.532-2.575-0.387-3.708
					c0.255-1.997,3.853-0.993,5.161-0.695c1.852,0.423,3.641,1.148,5.287,2.093c2.992,1.715,5.473,4.137,7.518,6.915
					c-0.245-1.561-0.481-2.491-0.481-2.491s3.088-0.623,7.297-2.521c-2.349-0.181-4.655-0.644-6.828-1.548
					c-3.373-1.403-6.189-3.852-7.912-7.089c-2.247-4.223-2.492-9.188-1.92-13.85c0.067-0.549,0.378-1.043,0.961-0.748
					c7.842,3.963,16.701,3.422,23.914-1.612c3.163-2.208,5.86-5.089,7.989-8.3c1.796-2.708,2.983-5.592,4.192-8.581
					c0.843-2.085,2.07-4.904,3.79-7.085C288.317,111.757,284.971,102.125,284.971,102.125z"/>
				<g>
					<path style="fill:#EAE9E9;" d="M22.628,154.66c0,0-4.107,7.467,0.373,18.295c-14.562,3.36-23.896,46.298,16.055,48.165
						c4.854,19.789,46.298,20.535,57.126,7.467C105.144,212.906,111.117,134.498,22.628,154.66z"/>
					<path style="fill:#C1BFBF;" d="M70.05,237.944c-4.002,0-8.077-0.426-11.989-1.325c-10.588-2.432-17.471-7.734-19.445-14.959
						c-23.958-1.293-27.949-16.876-28.55-23.546c-1.024-11.345,4.724-23.248,12.177-25.536c-4.149-10.629-0.278-17.88-0.107-18.189
						c0.077-0.14,0.211-0.241,0.366-0.276c22.53-5.135,52.758-6.701,68.832,14.982c14.427,19.467,11.094,49.696,5.335,59.772
						C91.951,234.573,81.3,237.943,70.05,237.944z M23.014,155.148c-0.603,1.29-3.392,8.17,0.507,17.593
						c0.061,0.152,0.055,0.326-0.02,0.473c-0.077,0.146-0.213,0.252-0.373,0.29c-7.259,1.674-12.951,13.357-11.943,24.51
						c0.579,6.414,4.456,21.451,27.899,22.547c0.248,0.011,0.46,0.185,0.52,0.426c2.316,9.442,12.715,13.161,18.71,14.538
						c14.537,3.34,31.337,0.068,37.438-7.295c4.515-7.921,9.82-38.04-5.32-58.466C77.853,152.793,55.169,147.877,23.014,155.148z"/>
				</g>
				<path style="fill:#D3D3D3;" d="M22.628,154.66c0,0-2.084,3.829-1.645,9.96c0.021,0.014,0.041,0.029,0.063,0.043
					c1.873,1.203,3.949,2.62,6.054,3.369c3.086,1.099,6.723,0.513,9.494,2.508c1.947,1.402,3.083,3.827,3.842,6.033
					c0.953,2.77,1.457,5.719,1.475,8.648c0.014,2.283-0.251,4.802-1.491,6.779c-2.998,4.781-8.558,0.514-11.024-2.444
					c-2.002-2.401-3.616-5.16-4.876-8.016c-0.948-2.148-1.973-4.703-2.006-7.156c-0.567-0.186-1.131-0.39-1.695-0.594
					c-0.816,0.429-1.608,0.972-2.366,1.624c0.137,0.082,0.229,0.205,0.154,0.437c-2.435,7.536,0.366,15.457,4.914,21.581
					c4.808,6.474,11.9,11.828,19.808,13.77c0.723,0.178,0.098,1.633-0.188,1.909c-3.326,3.207-7.947,3.764-12.378,3.745
					c-3.249-0.014-6.452-0.246-9.571-0.795c4.349,2.818,10.19,4.7,17.863,5.059c0.708,2.885,2.211,5.354,4.266,7.445
					c0-0.94,0.057-1.88,0.233-2.809c1.049-5.544,5.413-9.49,10.449-11.571c0.467-0.193,0.715,0.154,0.657,0.575
					c-1.327,9.715,13.609,11.233,18.315,4.802c0.22-0.301,0.644-0.5,0.915-0.122c2.523,3.523,5.32,6.839,5.853,11.296
					c0.242,2.029,0.038,3.983-0.442,5.859c7.232-1.242,13.527-3.96,16.881-8.008C105.144,212.906,111.117,134.498,22.628,154.66z"/>
				<g>
					<path style="fill:#B4715A;" d="M84.509,198.468c-0.751-3.113-1.401-6.266-2.45-9.272c-1.068-3.06-2.42-5.987-4.032-8.706
						c-1.614-2.723-3.501-5.21-5.428-7.631c-0.993-1.248-2.05-2.387-3.219-3.4c-0.959-0.831-2.093-1.333-2.924-2.368
						c-0.232-0.288-0.121-0.802,0.174-0.949c1.524-0.758,3.085-0.734,4.585-0.234c-0.029-0.026-0.058-0.053-0.086-0.08
						c-0.127-0.14-0.242-0.292-0.372-0.429c-3.837-4.029-9.007-6.763-14.165-5.982c-2.201,0.333-4.322,1.261-6.015,2.949
						c-1.559,1.554-2.678,3.625-3.414,5.862c-0.774,2.349-1.174,4.854-1.364,7.37c-0.198,2.627-0.226,5.317,0.037,7.949
						c0.647,6.476,2.985,12.768,6.4,17.941c3.528,5.345,8.307,9.367,13.677,11.707c2.495,1.087,5.092,1.867,7.723,2.245
						c2.523,0.363,5.191,0.41,7.624-0.472c2.31-0.837,4.315-2.59,5.162-5.32c0.318-1.025,0.505-2.121,0.605-3.242
						C85.908,203.895,85.166,201.191,84.509,198.468z"/>
					<path style="fill:#FDD4B5;" d="M84.203,211.974c-1.704,2.055-4.357,2.638-6.723,2.735c-2.437,0.1-4.897-0.309-7.277-0.973
						c-5.39-1.503-10.465-4.633-14.466-9.217c-3.814-4.37-6.648-10.008-8.117-15.994c-1.265-5.158-1.424-10.714-0.624-15.948
						c0.704-4.601,2.47-9.22,6.248-11.255c4.581-2.468,10.093-0.803,14.206,2.354c0.013,0.01,0.025,0.022,0.038,0.032
						c-0.041,0.117-0.03,0.236,0.086,0.329c1.369,1.096,2.662,2.305,3.892,3.593c0.359,0.443,0.703,0.9,1.038,1.367
						c0.389,0.388,0.763,0.796,1.127,1.216c1.459,1.52,2.763,3.251,3.798,5.186c3.497,5.648,6.039,12.138,7.52,18.843
						c0.736,3.329,1.157,6.725,1.13,10.151C86.059,207.056,85.85,209.988,84.203,211.974z"/>
					<path style="fill:#FDD4B5;" d="M48.87,188.158c-0.81-4.782-0.854-9.949,0.723-14.473c1.831-5.252,5.369-9.753,10.252-10.869
						c2.316-0.53,4.664-0.298,6.946,0.38c-4.03-2.837-9.206-4.213-13.547-1.874c-3.778,2.036-5.544,6.654-6.248,11.255
						c-0.801,5.234-0.642,10.79,0.624,15.948c1.067,4.348,2.861,8.505,5.221,12.133C50.995,196.747,49.609,192.52,48.87,188.158z"/>
					<path style="fill:#FDD4B5;" d="M84.951,194.243c-1.481-6.706-4.023-13.195-7.52-18.844c-1.035-1.935-2.339-3.666-3.798-5.186
						c-0.364-0.421-0.738-0.829-1.127-1.216c-0.335-0.467-0.679-0.924-1.039-1.367c-1.23-1.288-2.523-2.498-3.892-3.593
						c-0.116-0.093-0.128-0.212-0.086-0.329c-0.013-0.01-0.025-0.022-0.038-0.032c-0.841-0.646-1.743-1.224-2.681-1.722
						c0.93,1.05,1.782,2.189,2.537,3.363c1.909,2.968,3.598,6.651,3.522,10.438c-0.015,0.752-0.841,0.731-1.113,0.206
						c-1.942-3.756-5.247-6.568-9.041-6.645c-2.849-0.058-5.513,1.634-6.932,4.519c-1.866,3.794-1.345,8.73-0.186,12.766
						c1.236,4.304,3.469,8.464,6.726,11.044c3.366,2.667,7.314,2.754,10.834,0.658c0.165-0.098,0.443-0.086,0.588,0.072
						c2.199,2.393,3.871,6.716,2.484,10.085c-0.935,2.271-2.589,3.903-4.695,4.469c-0.395,0.106-0.796,0.163-1.199,0.198
						c0.631,0.225,1.268,0.43,1.909,0.609c2.38,0.663,4.84,1.073,7.277,0.973c2.366-0.097,5.019-0.68,6.723-2.735
						c1.647-1.986,1.856-4.918,1.877-7.581C86.107,200.969,85.686,197.572,84.951,194.243z"/>
					<path style="fill:#B4715A;" d="M75.289,201.112c0.106-0.855,0.115-1.7-0.113-2.481c-0.137-0.27-0.283-0.535-0.446-0.787
						c-0.447-0.692-0.974-1.273-1.53-1.813c0.011-0.026,0.022-0.053,0.035-0.078c-0.213-0.194-0.429-0.384-0.647-0.573
						c-0.017,0.011-0.036,0.02-0.053,0.032c-0.867-0.776-1.767-1.509-2.55-2.412c-0.828-0.956-1.574-2.142-1.128-3.527
						c0.403-1.251,1.096-2.368,1.587-3.574c0.944-2.321,1.192-4.871,0.578-7.391c-1.09-4.475-4.251-7.629-8.019-8.724
						c-3.462-1.005-7.463-0.498-9.546,3.181c-1.107,1.955-1.718,4.355-1.917,6.697c-0.188,2.218-0.044,4.562,0.907,6.564
						c0.118,0.248,0.528-0.002,0.432-0.26c-0.661-1.764-0.712-3.847-0.548-5.721c0.181-2.073,0.642-4.134,1.48-5.962
						c0.763-1.663,1.817-2.939,3.388-3.493c1.673-0.59,3.508-0.457,5.208,0.013c3.599,0.995,6.695,4.139,7.603,8.452
						c0.527,2.502,0.145,4.84-0.846,7.071c-0.49,1.103-1.144,2.173-1.451,3.377c-0.274,1.072-0.025,2.076,0.531,2.982
						c0.951,1.55,2.305,2.558,3.6,3.654c-0.638,0.761-1.472,1.245-2.347,1.612c-1.119,0.47-2.321,0.835-3.513,0.957
						c-2.661,0.271-5.778-0.761-7.302-3.564c-0.07-0.129-0.3,0.007-0.235,0.142c1.51,3.178,4.591,4.56,7.543,4.345
						c1.375-0.1,2.781-0.535,4.056-1.111c0.838-0.379,1.837-0.923,2.541-1.725c0.286,0.262,0.566,0.532,0.83,0.824
						c0.722,0.797,1.304,1.724,1.706,2.788C75.187,200.771,75.235,200.942,75.289,201.112z"/>
				</g>
				<g>
					<path style="fill:#FDD4B5;" d="M92.449,96.165c0,0-18.42,61.98-5.974,123.462c6.97,25.14,25.638,39.08,38.333,41.818
						c15.682,17.424,29.123,8.214,29.123,8.214c38.084-7.965,54.637-19.415,65.838-40.698c10.454-2.24,18.58-19.736,8.208-35.371
						c0.379-0.099,3.615-23.995,19.297-52.62c9.957-20.66,19.166-56.504-28.874-78.408C170.359,40.658,107.882,47.876,92.449,96.165
						z"/>
					<path style="fill:#B4715A;" d="M144.796,272.606c-5.399,0-12.609-2.184-20.285-10.651c-7.006-1.56-14.798-6.15-21.41-12.617
						c-8.055-7.878-13.991-18.101-17.168-29.561c-12.342-60.954,5.792-123.15,5.978-123.772c0-0.003,0.002-0.008,0.002-0.011
						c5.552-17.375,17.655-30.617,34.997-38.296c25.719-11.389,60.861-9.717,91.722,4.353c18.066,8.237,29.688,19.228,34.548,32.666
						c4.838,13.378,3.022,29.021-5.399,46.496c-8.708,15.895-15.03,32.928-18.805,50.652c-0.175,0.823-0.285,1.333-0.373,1.656
						c5.107,7.851,6.169,16.924,2.904,24.936c-2.353,5.772-6.585,9.861-11.364,10.994c-11.691,22.058-29.618,33.114-65.999,40.736
						C153.511,270.582,149.992,272.605,144.796,272.606z M92.986,96.33c-0.257,0.864-18.21,62.674-5.96,123.185
						c3.93,14.173,17.276,36.931,37.901,41.382c0.116,0.024,0.219,0.084,0.298,0.173c15.149,16.83,27.855,8.49,28.39,8.125
						c0.059-0.042,0.129-0.07,0.202-0.086c36.659-7.666,53.788-18.242,65.455-40.409c0.079-0.148,0.217-0.253,0.379-0.288
						c4.452-0.954,8.596-4.931,10.818-10.378c3.156-7.745,2.077-16.541-2.958-24.133c-0.101-0.151-0.123-0.341-0.057-0.511
						c0.013-0.036,0.031-0.071,0.053-0.104c0.064-0.204,0.208-0.879,0.373-1.654c3.798-17.832,10.158-34.967,18.903-50.932
						c8.272-17.166,10.074-32.517,5.344-45.601c-4.754-13.144-16.177-23.919-33.958-32.026
						c-30.58-13.944-65.371-15.606-90.801-4.349C110.328,66.269,98.438,79.273,92.986,96.33z"/>
				</g>
				<path style="fill:#FDD4B5;" d="M170.448,195.5c0,0-5.994,2.374-5.036,6.684c0.958,4.309,5.267-0.958,6.943,2.394
					c1.676,3.352,6.703,7.422,14.843,5.746c8.14-1.676,10.534-7.422,6.703-16.04c-3.831-8.619-5.298-19.006,3.336-29.613
					c8.395-10.846,15.825-13.089,23.238-12.283c11.013,1.197,13.913,22.653,1.45,37.781c-5.52-4.264-22.718-3.219-27.885-0.749
					c6.325,8.455,9.198,24.496-10.912,24.735c-13.646-0.718-13.104-7.309-13.104-7.309s-8.682,3.718-8.921-3.704
					C160.863,195.719,170.448,195.5,170.448,195.5z"/>
				<path style="fill:#FDD4B5;" d="M152.303,179.567c0,0,5.332-6.86,6.709-19.751c2.455-22.988-11.551-32.505-26.722-24.322
					s-18.06,22.969-18.06,22.969s-3.678-1.839-3.77-7.907c-1.195,2.85-2.299,6.988,2.207,10.574
					c1.103,0.644-4.046,5.057-5.701-5.976c-1.747,6.436-0.184,9.47,3.954,12.504c-2.758,1.379-4.046,4.965-4.046,4.965
					s3.126-1.839,5.425-0.368c-7.355,0.919-13.424,7.723-13.424,7.723S116.813,169.546,152.303,179.567z"/>
				<path style="fill:#FDD4B5;" d="M153.555,192.562c0,0-15.613,23.137-47.991,16.452c6.687,7.15,20.523,3.895,20.523,3.895
					s-5.494,24.619,21.975,33.368c27.468,8.749,45.78-15.464,45.78-15.464s4.883-1.831,8.546-3.866
					c4.883,4.273,14.635,2.465,14.635,2.465s-19.736-4.623-21.153-17.787c0,0-1.824,6.369,2.856,12.27
					c-9.359,6.104-42.118,6.918-65.313-13.022C142.771,210.467,155.589,199.479,153.555,192.562z"/>
				<path style="fill:#FDD4B5;" d="M120.805,124.355c0,0,20.214-15.693,30.587-3.192
					C153.52,107.333,144.211,104.673,120.805,124.355z"/>
				<path style="fill:#FDD4B5;" d="M209.375,150.155c0,0,11.969-13.033,22.076,5.851
					C228.259,138.186,213.63,134.994,209.375,150.155z"/>
				<g>
					<path style="fill:#FDD4B5;" d="M177.719,253.43c-6.15,4.252-22.973,17.404-36.228,14.79
						c-13.255-2.614-21.29-19.092-27.316-31.983c-2.522,5.184,2.242,17.655-2.662,11.63c-8.407-9.388-16.32-29.492-5.95-38.853
						c-15.766-4.134-20.581-19.261-7.272-27.893c-6.269-6.394,1.514-16.819,0.116-21.573c-5.873-22.095,12.471-31.624,16.136-55.708
						c20.942,9.424,45.119,2.524,45.119,2.524c9.459,52.272,57.25,34.35,71.19,29.372c3.69,5.644,8.989,8.636,13.793,10.217
						c0.836-1.642,1.709-3.303,2.629-4.982c9.957-20.66,19.166-56.504-28.874-78.408C170.359,40.658,107.882,47.876,92.449,96.165
						c0,0-18.42,61.98-5.974,123.462c6.97,25.14,25.638,39.08,38.333,41.818c15.682,17.424,29.123,8.214,29.123,8.214
						c27.478-5.747,43.719-13.332,54.857-25.091C184.197,262.921,173.28,261.406,177.719,253.43z"/>
				</g>
				<g>
					
						<radialGradient id="SVGID_1_" cx="921.6777" cy="192.4749" r="27.5576" gradientTransform="matrix(-1 0 0 1 1040.3785 0)" gradientUnits="userSpaceOnUse">
						<stop  offset="0" style="stop-color:#F37422"/>
						<stop  offset="1" style="stop-color:#FFFFFF"/>
					</radialGradient>
					<path style="opacity:0.51;fill:url(#SVGID_1_);" d="M106.01,171.844c1.348-0.538,2.744-0.914,4.162-1.146
						c-0.81,0.319-1.61,0.669-2.395,1.056c-0.418,0.206-0.051,0.829,0.365,0.625c1.461-0.719,2.971-1.33,4.526-1.813
						c0.155-0.048,0.312-0.089,0.467-0.135c0.727-0.011,1.457,0.011,2.186,0.077c0.392,0.035,0.446-0.473,0.177-0.657
						c4.942-0.991,10.087-0.659,14.87,1.029c5.226,1.845,9.934,5.241,13.29,9.658c3.184,4.191,5.172,9.332,5.101,14.633
						c-0.078,5.856-2.753,11.247-6.805,15.388c-4.335,4.431-9.888,7.474-15.866,9.036c-5.638,1.473-11.688,1.707-17.37,0.33
						c-5.434-1.317-10.52-4.219-13.87-8.771c-3.648-4.957-5.081-11.344-4.388-17.414c0.712-6.233,3.54-12.316,7.964-16.778
						C100.585,174.784,103.155,172.983,106.01,171.844z"/>
					<path style="opacity:0.49;fill:#FDD1AB;" d="M101.811,179.961c-0.699,0.699-0.934,1.598-0.525,2.007
						c0.409,0.409,1.308,0.174,2.007-0.525c0.699-0.699,0.934-1.598,0.525-2.007C103.409,179.027,102.51,179.262,101.811,179.961z"
						/>
				</g>
				<g>
					<path style="fill:#EAE9E9;" d="M166.003,90.44c0,0-7.009,35.967,22.486,44.444c19.428,4.769,44.508-5.299,44.508-5.299
						s1.06,9.361,13.953,8.654c-0.177,6.182,18.744,13.06,31.065-4.489c12.321-17.549,14.188-45.925-3.734-78.408
						c-17.922-32.483-52.272-60.86-100.81-36.964c-16.802-17.175-45.178-16.802-68.7-5.974
						C44.284,12.779-10.975,68.411,9.187,136.738c14.188,46.672,42.938,26.51,44.805,22.402c8.961,8.961,18.295,7.841,22.402,3.734
						c-7.841,25.389,4.48,38.457,16.802,34.724c-15.308-10.454-7.094-23.896-2.987-29.87c3.36-5.974-5.601-10.454,1.493-25.016
						c7.841-14.188,15.308-33.603,13.441-47.792C122.692,100.895,149.948,99.775,166.003,90.44z"/>
					<path style="fill:#C1BFBF;" d="M89.039,198.792c-3.651,0-7.092-1.436-9.826-4.186c-6.035-6.068-7.445-17.242-3.873-30.13
						c-4.971,3.417-13.456,3.009-21.243-4.447c-2.02,2.699-9.671,8.078-18.627,7.479c-8.153-0.536-19.425-6.281-26.82-30.606
						c-8.809-29.855-3.803-59.566,14.094-83.663c19.081-25.688,49.692-41.156,81.902-41.394
						c26.355-12.088,53.345-9.781,68.942,5.853c22.184-10.817,43.045-11.652,62.014-2.485c19.366,9.362,31.991,26.843,39.17,39.859
						c16.304,29.548,17.688,59.081,3.704,79.002c-7.984,11.366-18.793,12.752-25.631,10.487c-3.675-1.22-6.116-3.424-6.423-5.735
						c-10.656,0.364-13.278-6.277-13.84-8.48c-4.017,1.504-26.559,9.425-44.227,5.083c-26.635-7.655-23.962-37.623-23.087-43.931
						c-17,9.298-43.115,9.492-59.464,4.233c1.835,17.648-9.912,40.563-13.609,47.254c-4.138,8.493-2.686,13.411-1.522,17.363
						c0.8,2.71,1.491,5.05,0.024,7.656c-3.02,4.399-6.853,10.97-5.592,17.716c0.807,4.316,3.636,8.157,8.408,11.415
						c0.18,0.122,0.272,0.336,0.239,0.549c-0.033,0.214-0.184,0.389-0.393,0.452C91.907,198.575,90.458,198.792,89.039,198.792z
						 M76.394,162.314c0.099,0,0.2,0.026,0.289,0.081c0.222,0.133,0.322,0.399,0.248,0.646c-4.085,13.226-2.936,24.73,3.077,30.773
						c3.213,3.231,7.487,4.495,11.881,3.544c-4.43-3.283-7.083-7.125-7.888-11.433c-1.338-7.157,2.638-13.994,5.743-18.515
						c1.206-2.149,0.638-4.077-0.149-6.744c-1.156-3.92-2.739-9.287,1.603-18.198c3.73-6.753,15.68-30.054,13.388-47.473
						c-0.024-0.193,0.05-0.385,0.202-0.508c0.149-0.125,0.353-0.161,0.537-0.098c18.348,6.248,45.444,4.259,60.393-4.435
						c0.189-0.112,0.428-0.099,0.608,0.028c0.18,0.127,0.267,0.349,0.226,0.565c-0.068,0.354-6.563,35.562,22.092,43.797
						c19.002,4.665,43.894-5.179,44.144-5.279c0.162-0.065,0.349-0.049,0.496,0.038c0.149,0.09,0.25,0.245,0.27,0.418
						c0.042,0.361,1.112,8.806,13.366,8.159c0.149-0.027,0.309,0.047,0.423,0.158c0.112,0.11,0.173,0.262,0.169,0.419
						c-0.057,1.954,2.283,4.108,5.686,5.238c6.474,2.151,16.73,0.798,24.357-10.066c13.734-19.561,12.327-48.651-3.765-77.815
						c-7.103-12.873-19.576-30.156-38.677-39.39c-18.745-9.062-39.403-8.167-61.393,2.659c-0.219,0.108-0.482,0.063-0.649-0.111
						c-15.239-15.579-41.958-17.877-68.064-5.857c-0.072,0.034-0.151,0.051-0.23,0.051C72.87,13.164,42.542,28.469,23.648,53.908
						C5.964,77.715,1.021,107.076,9.727,136.579c7.206,23.707,18.017,29.295,25.815,29.807c9.574,0.643,17.184-5.815,17.938-7.479
						c0.077-0.168,0.23-0.287,0.41-0.32c0.191-0.029,0.368,0.025,0.498,0.156c9.228,9.23,18.151,7.191,21.609,3.735
						C76.105,162.369,76.25,162.314,76.394,162.314z"/>
				</g>
				<g>
					<path style="fill:#EAE9E9;" d="M121.678,120.428c0,0,20.214-15.692,30.587-3.192
						C154.393,103.406,145.083,100.746,121.678,120.428z"/>
					<path style="fill:#C1BFBF;" d="M121.678,120.99c-0.164,0-0.327-0.071-0.436-0.208c-0.193-0.238-0.158-0.586,0.075-0.783
						c13.807-11.608,23.701-16.29,28.631-13.521c2.735,1.536,3.728,5.286,2.873,10.844c-0.033,0.218-0.193,0.397-0.406,0.455
						c-0.204,0.06-0.439-0.011-0.581-0.182c-9.903-11.936-29.613,3.124-29.811,3.276C121.92,120.951,121.799,120.99,121.678,120.99z
						 M141.766,111.88c3.636,0,7.186,1.092,10.103,4.076c0.357-3.294,0.105-7.051-2.471-8.5c-2.191-1.232-7.629-1.527-20.39,7.882
						C132.705,113.529,137.301,111.88,141.766,111.88z"/>
				</g>
				<path style="fill:#D3D3D3;" d="M144.367,109.618c-4.345-0.492-8.878,1.684-12.768,3.359c-0.228,0.098-0.451,0.213-0.679,0.314
					c-2.796,1.942-5.868,4.301-9.242,7.138c0,0,20.214-15.692,30.587-3.192c0.069-0.445,0.124-0.878,0.169-1.3
					C150.7,112.662,148.162,110.048,144.367,109.618z"/>
				<g>
					<path style="fill:#EAE9E9;" d="M210.247,146.228c0,0,11.969-13.033,22.076,5.851
						C229.132,134.259,214.503,131.068,210.247,146.228z"/>
					<path style="fill:#C1BFBF;" d="M232.323,152.641c-0.202,0-0.395-0.11-0.496-0.296c-3.224-6.023-6.941-9.341-11.052-9.865
						c-5.583-0.699-10.07,4.08-10.116,4.129c-0.173,0.191-0.463,0.238-0.686,0.11c-0.226-0.127-0.336-0.391-0.265-0.641
						c1.833-6.538,5.761-10.317,10.495-10.074c4.927,0.238,10.756,5.271,12.673,15.978c0.048,0.272-0.107,0.538-0.368,0.629
						C232.446,152.631,232.385,152.641,232.323,152.641z M219.609,141.283c0.425,0,0.86,0.026,1.3,0.082
						c3.699,0.467,7.07,2.932,10.046,7.34c-2.287-7.719-6.873-11.391-10.807-11.581c-3.704-0.184-6.86,2.507-8.706,7.277
						C213.153,143.063,216.089,141.283,219.609,141.283z"/>
				</g>
				<path style="fill:#D3D3D3;" d="M224.175,140.135c-2.558-1.098-5.534-1.071-8.062,0.121c-2.415,1.139-4.292,3.232-5.736,5.6
					c-0.039,0.131-0.092,0.238-0.129,0.372c0,0,11.969-13.033,22.076,5.852c-0.463-2.586-1.188-4.826-2.066-6.784
					C228.638,143.087,226.671,141.206,224.175,140.135z"/>
				<g>
					<g>
						<path style="fill:#D25452;" d="M128.071,210.293c0,0,28.307,24.89,63.446,19.034c-21.962,15.617-31.047,18.171-46.242,12.018
							C127.632,234.201,127.583,215.173,128.071,210.293z"/>
						<g>
							<path style="fill:#FFFFFF;" d="M170.775,236.159c7.412,0.483,11.936-3.387,14.164-6.078
								c-32.027,2.052-56.868-19.788-56.868-19.788c-0.102,1.019-0.169,2.677-0.069,4.692
								C140.382,232.403,162.134,235.596,170.775,236.159z"/>
						</g>
					</g>
					<g>
						<path style="fill:#F47E5A;" d="M138.361,237.274c1.944,1.567,4.199,2.971,6.914,4.07c7.12,2.883,12.907,3.823,19.298,2.434
							C155.183,231.059,143.064,235.026,138.361,237.274z"/>
					</g>
				</g>
				<path style="fill:#5A0800;" d="M112.984,172.097c0,0,23.149-1.232,37.711,5.339c4.107-21.768-5.514-30.615-17.462-29.383
					C121.285,149.286,113.358,156.489,112.984,172.097z"/>
				<g>
					<path style="fill:#EAE9E8;" d="M112.984,172.582c0,0,23.149-1.12,37.711,4.854c4.107-19.789-5.514-27.831-17.462-26.711
						C121.285,151.846,113.358,158.394,112.984,172.582z"/>
					<path style="fill:#B4715A;" d="M150.695,177.997c-0.072,0-0.145-0.014-0.213-0.042c-14.274-5.854-37.24-4.821-37.473-4.814
						c-0.164,0.007-0.307-0.049-0.419-0.159c-0.112-0.11-0.173-0.26-0.169-0.417c0.355-13.414,7.533-21.16,20.758-22.401
						c6.046-0.559,11.237,1.197,14.611,4.967c4.305,4.812,5.498,12.564,3.454,22.417c-0.035,0.163-0.14,0.304-0.287,0.382
						C150.877,177.975,150.785,177.997,150.695,177.997z M117.328,171.944c7.316,0,22.287,0.563,32.951,4.72
						c1.785-9.175,0.638-16.352-3.325-20.782c-3.132-3.499-7.987-5.133-13.669-4.598c-12.559,1.178-19.19,8.146-19.721,20.714
						C114.277,171.976,115.586,171.944,117.328,171.944z"/>
				</g>
				<path style="fill:#FFFFFF;" d="M116.464,171.768c0,0,19.881-0.962,32.386,4.169c3.527-16.995-4.735-23.901-14.996-22.939
					C123.593,153.96,116.785,159.583,116.464,171.768z"/>
				<path style="fill:#5A0800;" d="M194.882,188.751c0,0,16.814-4.879,27.043,1.416c4.904-9.915,0.14-21.719-10.089-22.506
					C201.608,166.875,192.92,174.115,194.882,188.751z"/>
				<g>
					<path style="fill:#EAE9E8;" d="M194.882,188.907c0,0,16.814-4.344,27.043,1.261c4.904-8.828,0.14-19.336-10.089-20.037
						S192.92,175.876,194.882,188.907z"/>
					<path style="fill:#B4715A;" d="M221.924,190.729c-0.092,0-0.184-0.022-0.27-0.069c-9.914-5.432-26.469-1.253-26.633-1.209
						c-0.154,0.041-0.318,0.013-0.45-0.076c-0.134-0.088-0.221-0.227-0.246-0.385c-0.899-5.98,0.346-11.008,3.601-14.539
						c3.217-3.487,8.296-5.265,13.947-4.88c4.783,0.328,8.761,2.792,10.916,6.762c2.311,4.253,2.171,9.527-0.375,14.108
						C222.312,190.624,222.122,190.729,221.924,190.729z M208.238,186.722c4.511,0,9.412,0.634,13.454,2.688
						c2.107-4.125,2.158-8.776,0.112-12.542c-1.969-3.625-5.616-5.876-10.004-6.176c-5.324-0.363-10.061,1.284-13.046,4.521
						c-2.908,3.153-4.079,7.64-3.401,13.003C197.116,187.805,202.344,186.722,208.238,186.722z"/>
				</g>
				<path style="fill:#FFFFFF;" d="M196.864,187.995c0,0,14.907-3.851,23.975,1.118c4.348-7.826,0.124-17.143-8.944-17.764
					C202.827,170.727,195.125,176.441,196.864,187.995z"/>
				<g>
					
						<radialGradient id="SVGID_00000160898124274224638260000016806150449976183210_" cx="122.6278" cy="205.676" r="24.4981" gradientTransform="matrix(1 0 0 1 89.025 0)" gradientUnits="userSpaceOnUse">
						<stop  offset="0" style="stop-color:#F37422"/>
						<stop  offset="1" style="stop-color:#FFFFFF"/>
					</radialGradient>
					<path style="opacity:0.51;fill:url(#SVGID_00000160898124274224638260000016806150449976183210_);" d="M219.43,186.669
						c-1.198-0.478-2.439-0.813-3.7-1.019c0.72,0.284,1.431,0.595,2.129,0.939c0.372,0.183,0.046,0.737-0.325,0.555
						c-1.299-0.639-2.641-1.182-4.023-1.611c-0.138-0.043-0.277-0.079-0.415-0.12c-0.647-0.01-1.295,0.01-1.943,0.068
						c-0.349,0.031-0.397-0.42-0.157-0.584c-4.393-0.881-8.967-0.585-13.219,0.915c-4.646,1.64-8.831,4.659-11.815,8.586
						c-2.831,3.725-4.597,8.296-4.535,13.008c0.069,5.206,2.448,9.998,6.049,13.679c3.854,3.939,8.79,6.645,14.104,8.033
						c5.012,1.31,10.391,1.518,15.441,0.294c4.831-1.171,9.352-3.75,12.33-7.798c3.243-4.407,4.517-10.084,3.901-15.481
						c-0.633-5.541-3.147-10.948-7.08-14.915C224.253,189.283,221.969,187.682,219.43,186.669z"/>
					<path style="opacity:0.49;fill:#FDD1AB;" d="M223.163,193.886c0.622,0.622,0.831,1.42,0.467,1.784
						c-0.364,0.364-1.163,0.155-1.784-0.467c-0.622-0.622-0.83-1.42-0.467-1.784C221.743,193.055,222.542,193.264,223.163,193.886z"
						/>
				</g>
				<g>
					<path style="fill:#C1BFBF;" d="M185.238,33.303c-2.296-5.09-5.549-9.582-9.739-13.277c-0.108-0.096-0.413,0.248-0.311,0.357
						c6.314,6.756,10.751,15.36,12.205,24.519c1.477,9.301-0.351,18.922-5.075,27.063c-2.633,4.537-6.096,8.569-10.182,11.857
						c-0.682,0.549-0.574,1.719,0.372,0.96C187.597,72.679,193.24,51.042,185.238,33.303z"/>
					<path style="fill:#C1BFBF;" d="M103.361,93.588c-4.048-2.186-7.783-4.828-10.868-8.262c-3.111-3.462-5.444-7.577-6.775-12.038
						c-0.068-0.229-0.59,0.255-0.533,0.478c2.285,8.916,8.732,17.42,17.549,20.646C103.011,94.513,103.631,93.734,103.361,93.588z"
						/>
					<path style="fill:#C1BFBF;" d="M262.166,66.639c-0.098-0.257-0.666,0.284-0.585,0.522c3.431,10.132,4.256,21.343,1.509,31.737
						c-2.426,9.183-7.817,17.385-15.413,23.112c-4.079,3.076-8.761,5.244-13.672,6.614c-0.477,0.133-1.286,1.629-0.503,1.461
						c9.287-1.987,17.418-7.97,23.08-15.476c6.342-8.406,9.442-18.861,9.258-29.356C265.728,78.863,264.431,72.61,262.166,66.639z"
						/>
					<path style="fill:#C1BFBF;" d="M99.992,98.49c-0.091-0.659-1.016,0.291-1.033,0.667c-0.291,6.215-1.319,12.169-4.14,17.774
						c-2.77,5.504-6.962,10.338-12.105,13.744c-11.575,7.664-27.172,7.51-40.188,4.175c-6.245-1.6-12.987-4.444-16.097-10.469
						c-0.069-0.133-0.373,0.17-0.316,0.286c2.768,5.589,8.167,8.902,13.952,10.732c6.851,2.168,14.333,3.096,21.505,2.831
						c7.169-0.265,14.338-2.019,20.468-5.837c5.372-3.346,9.863-8.104,13.025-13.577C98.507,112.856,100.952,105.433,99.992,98.49z"
						/>
					<path style="fill:#C1BFBF;" d="M98.801,127.478c-4.227,8.273-8.511,17.378-16.441,22.765
						c-4.414,2.998-9.611,4.374-14.905,4.613c-5.532,0.25-11.401-0.427-16.578-2.462c-5.196-2.042-9.844-6.002-11.415-11.509
						c-0.085-0.297-0.744,0.315-0.675,0.601c2.757,11.505,15.965,14.836,26.265,14.899c5.639,0.035,11.256-1.125,16.12-4.062
						c4.126-2.492,7.499-6.026,10.309-9.907c3.349-4.627,5.919-9.793,8.078-15.064C99.858,126.626,98.982,127.125,98.801,127.478z"
						/>
					<path style="fill:#C1BFBF;" d="M50.079,208.975C34.234,202.38,22.666,186.54,22.408,169.2
						c-0.004-0.242-0.423,0.129-0.426,0.292c-0.276,13.677,6.32,26.981,17.158,35.288c3.075,2.357,6.436,4.202,10.075,5.528
						C49.718,210.491,50.686,209.228,50.079,208.975z"/>
				</g>
				<g>
					<defs>
						<path id="SVGID_00000119835590224946521450000002602930808493707434_" d="M112.984,172.582c0,0,23.149-1.12,37.711,4.854
							c4.107-19.789-5.514-27.831-17.462-26.711C121.285,151.846,113.358,158.394,112.984,172.582z"/>
					</defs>
					<clipPath id="SVGID_00000173136851753404754450000005419652897556628122_">
						<use xlink:href="#SVGID_00000119835590224946521450000002602930808493707434_"  style="overflow:visible;"/>
					</clipPath>
					<g style="clip-path:url(#SVGID_00000173136851753404754450000005419652897556628122_);">
						<g>
							<g>
								<path style="fill:#5A0800;" d="M148.33,171.1c-0.813,6.88-7.051,11.798-13.931,10.984
									c-6.88-0.814-11.798-7.051-10.984-13.931c0.813-6.88,7.051-11.798,13.931-10.984
									C144.226,157.983,149.144,164.22,148.33,171.1z"/>
								<path style="fill:#8A2117;" d="M146.652,170.902c-0.704,5.954-6.101,10.209-12.054,9.505
									c-5.954-0.704-10.209-6.101-9.505-12.055c0.704-5.954,6.101-10.209,12.054-9.505
									C143.101,159.551,147.356,164.948,146.652,170.902z"/>
								<path style="fill:#110200;" d="M142.213,170.377c-0.414,3.502-3.589,6.005-7.091,5.591
									c-3.502-0.414-6.005-3.589-5.591-7.091c0.414-3.502,3.589-6.005,7.091-5.591C140.124,163.7,142.628,166.875,142.213,170.377
									z"/>
							</g>
							<path style="fill:#FFFFFF;" d="M133.66,164.594c-0.144,1.216-1.246,2.085-2.461,1.941c-1.216-0.144-2.084-1.246-1.94-2.461
								c0.144-1.215,1.245-2.084,2.461-1.94C132.935,162.277,133.804,163.379,133.66,164.594z"/>
							<path style="fill:#FFFFFF;" d="M130.539,169.165c-0.085,0.721-0.738,1.235-1.459,1.15c-0.72-0.085-1.235-0.738-1.15-1.459
								c0.085-0.72,0.738-1.235,1.459-1.15C130.109,167.792,130.624,168.445,130.539,169.165z"/>
							<path style="fill:#7B2E1F;" d="M145.008,169.639c-0.071-0.407-1.493-0.134-1.56,0.135c-0.686,2.775-1.829,5.28-4.483,6.422
								c-1.239,0.533-2.564,0.896-3.95,0.814c-1.307-0.077-2.603-0.474-3.715-1.135c-1.28-0.762-2.325-1.863-2.937-3.157
								c-0.111-0.235-0.497-0.078-0.614,0.051c-1.024,1.139,0.23,3.155,1.022,4.065c3.94,4.522,12.072,3.46,15.031-1.055
								C144.778,174.288,145.385,171.817,145.008,169.639z"/>
						</g>
					</g>
				</g>
				<g>
					<defs>
						<path id="SVGID_00000089560309428679385120000003139668330915941813_" d="M194.882,188.907c0,0,16.814-4.344,27.043,1.261
							c4.904-8.828,0.14-19.336-10.089-20.037S192.92,175.876,194.882,188.907z"/>
					</defs>
					<clipPath id="SVGID_00000041996778051562406950000005916807724496445623_">
						<use xlink:href="#SVGID_00000089560309428679385120000003139668330915941813_"  style="overflow:visible;"/>
					</clipPath>
					<g style="clip-path:url(#SVGID_00000041996778051562406950000005916807724496445623_);">
						<g>
							<g>
								<path style="fill:#5A0800;" d="M221.596,186.539c-0.719,6.079-6.229,10.424-12.308,9.705
									c-6.079-0.719-10.424-6.229-9.705-12.308c0.719-6.079,6.229-10.424,12.308-9.705
									C217.97,174.949,222.315,180.46,221.596,186.539z"/>
								<path style="fill:#8A2117;" d="M220.114,186.364c-0.622,5.26-5.39,9.02-10.65,8.398c-5.26-0.622-9.02-5.391-8.398-10.65
									c0.622-5.26,5.39-9.02,10.65-8.398C216.976,176.335,220.736,181.104,220.114,186.364z"/>
								<path style="fill:#110200;" d="M216.192,185.9c-0.366,3.094-3.171,5.306-6.265,4.94c-3.094-0.366-5.306-3.171-4.94-6.265
									c0.366-3.094,3.171-5.306,6.265-4.94C214.346,180,216.558,182.806,216.192,185.9z"/>
							</g>
							<path style="fill:#FFFFFF;" d="M208.636,180.791c-0.127,1.074-1.101,1.842-2.175,1.715c-1.074-0.127-1.841-1.101-1.714-2.175
								c0.127-1.074,1.1-1.841,2.174-1.714C207.995,178.744,208.762,179.717,208.636,180.791z"/>
							<path style="fill:#FFFFFF;" d="M205.877,184.829c-0.075,0.637-0.652,1.092-1.289,1.016c-0.637-0.075-1.092-0.652-1.016-1.289
								c0.075-0.636,0.652-1.091,1.289-1.016C205.498,183.616,205.953,184.193,205.877,184.829z"/>
							<path style="fill:#7B2E1F;" d="M218.661,185.248c-0.062-0.36-1.319-0.119-1.378,0.119c-0.606,2.452-1.616,4.665-3.961,5.674
								c-1.095,0.471-2.265,0.791-3.49,0.719c-1.155-0.068-2.3-0.418-3.282-1.003c-1.131-0.674-2.054-1.646-2.595-2.79
								c-0.098-0.208-0.439-0.069-0.542,0.045c-0.905,1.006,0.203,2.788,0.903,3.591c3.481,3.995,10.666,3.057,13.28-0.932
								C218.458,189.355,218.995,187.172,218.661,185.248z"/>
						</g>
					</g>
				</g>
				<path style="fill:#B4715A;" d="M158.862,245.009c-4.399,0-8.767-1.107-13.798-3.143c-7.682-3.112-12.971-8.735-15.721-16.712
					c-2.449-7.112-1.954-13.673-1.831-14.916c0.022-0.209,0.158-0.389,0.353-0.466c0.195-0.079,0.417-0.04,0.577,0.1
					c0.283,0.248,28.508,24.644,62.983,18.902c0.254-0.047,0.511,0.098,0.612,0.34c0.099,0.241,0.02,0.52-0.195,0.671
					C176.868,240.432,167.803,245.009,158.862,245.009z M128.551,211.419c-0.261,4.911,0.044,22.566,16.934,29.405
					c14.359,5.815,23.23,3.775,43.782-10.597C158.678,234.186,133.43,215.345,128.551,211.419z"/>
				<g>
					<g>
						<path style="fill:#B4715A;" d="M197.237,164.67c-2.693,3.972-4.425,8.566-4.836,13.36c-0.382,4.443-0.008,10.321,2.825,13.99
							c0.255,0.33,0.918-0.567,0.839-0.846c-0.621-2.185-1.527-4.264-2.016-6.49c-0.498-2.272-0.7-4.6-0.603-6.924
							c0.194-4.625,1.477-9.161,4.007-13.057C197.615,164.453,197.347,164.508,197.237,164.67z"/>
						<path style="fill:#B4715A;" d="M198.088,195.617c-0.171-0.4-0.977,0.406-0.858,0.756c1.247,3.666,1.164,7.679-0.942,11.028
							c-1.893,3.009-5.131,4.87-8.616,5.32c-5.78,0.747-13.301-0.398-16.935-5.459c-0.092-0.128-0.471,0.27-0.399,0.407
							c1.692,3.2,4.688,4.958,8.137,5.767c3.56,0.834,7.735,1.009,11.232-0.159C196.769,210.918,201.095,202.635,198.088,195.617z"
							/>
						<path style="fill:#B4715A;" d="M170.776,194.822c-3.592,0.141-8.172,1.763-9.592,5.395c-1.238,3.164,0.201,6.879,3.613,7.783
							c1.868,0.495,3.737,0.051,5.227-1.155c0.338-0.274,0.577-1.214-0.117-0.782c-2.276,1.419-5.686,0.805-7.146-1.494
							c-0.721-1.136-1.015-2.571-0.747-3.894c0.309-1.524,1.349-2.498,2.645-3.265c1.771-1.048,3.747-1.686,5.79-1.91
							C170.682,195.474,171.152,194.807,170.776,194.822z"/>
					</g>
					<path style="fill:#B4715A;" d="M159.905,250.033c-2.247,2.448-5.627,3.807-8.945,3.335c-3.176-0.452-6.095-2.461-7.575-5.311
						c-0.13-0.251-0.671,0.292-0.572,0.511c1.483,3.297,4.594,5.767,8.241,6.102c3.633,0.334,7.272-1.423,9.323-4.417
						C160.727,249.742,160.229,249.679,159.905,250.033z"/>
					<g>
						<path style="fill:#B4715A;" d="M126.247,261.871c-6.344-5.778-9.084-13.771-11.555-21.756c-0.037-0.121-0.32,0.146-0.29,0.263
							c2.016,7.98,4.271,17.019,11.12,22.327C125.815,262.933,126.521,262.121,126.247,261.871z"/>
						<path style="fill:#B4715A;" d="M177.719,253.43c-3.641,3.306-7.62,6.302-11.75,8.97c-4.22,2.726-8.723,4.838-13.165,7.158
							c-0.148,0.077-0.622,0.797-0.266,0.682c4.833-1.559,9.388-4.297,13.6-7.086c4.205-2.785,8.038-5.976,11.653-9.488
							C177.945,253.516,177.969,253.203,177.719,253.43z"/>
					</g>
					<path style="fill:#B4715A;" d="M152.529,195.071c-11.284,13.144-30.284,18.668-46.965,13.943
						c-4.75-1.346-9.268-3.752-12.518-7.529c-0.142-0.165-0.635,0.36-0.483,0.556c5.638,7.276,15.323,9.605,24.122,9.714
						c8.852,0.111,17.757-2.137,25.391-6.649c4.289-2.535,8.053-5.769,11.066-9.741C153.607,194.752,152.934,194.6,152.529,195.071z
						"/>
					<path style="fill:#B4715A;" d="M219.351,228.258c-5.578,0.824-10.934-0.308-15.484-3.705c-2.002-1.495-3.769-3.301-5.273-5.294
						c-1.639-2.172-3.104-4.824-2.726-7.634c0.032-0.236-0.402,0.117-0.429,0.247c-1.151,5.542,3.65,10.702,7.758,13.741
						c4.465,3.304,10.451,5.196,15.873,3.368C219.264,228.918,219.756,228.199,219.351,228.258z"/>
					<path style="fill:#B4715A;" d="M115.158,160.719c-1.191-1.093-2.327-2.228-3.139-3.641c-0.798-1.388-1.276-2.949-1.361-4.549
						c-0.011-0.214-0.374,0.116-0.374,0.257c0.008,3.18,1.477,6.903,4.39,8.489C114.879,161.387,115.338,160.884,115.158,160.719z"
						/>
					<path style="fill:#B4715A;" d="M112.814,167.102c-1.715-1.286-3.316-2.581-4.443-4.443c-1.097-1.813-1.705-3.875-1.71-5.996
						c0-0.187-0.331,0.103-0.334,0.231c-0.055,2.198,0.484,4.395,1.533,6.326c1.004,1.848,2.504,3.661,4.472,4.513
						C112.53,167.818,113.008,167.247,112.814,167.102z"/>
					<path style="fill:#B4715A;" d="M149.683,140.034c-7.923-5.874-17.256-1.268-24.214,3.764c-0.202,0.146-0.432,0.762-0.025,0.483
						c7.013-4.815,16.622-9.337,24.169-2.911c6.7,5.705,7.284,14.904,7.49,23.076c0.015,0.585,0.993-0.238,0.992-0.643
						C158.07,155.347,157.036,145.486,149.683,140.034z"/>
					<path style="fill:#B4715A;" d="M223.378,158.643c-2.713-2.293-6.306-2.081-9.536-1.186c-5.962,1.652-11.131,5.599-14.419,10.82
						c-0.296,0.471,0.217,0.396,0.421,0.075c3.23-5.094,8.362-8.869,14.24-10.297c3.152-0.766,6.457-0.714,8.912,1.664
						c2.315,2.243,3.102,5.541,3.654,8.605c0.049,0.272,0.664-0.28,0.644-0.502C226.998,164.431,226.085,160.931,223.378,158.643z"
						/>
					<path style="fill:#B4715A;" d="M149.561,176.633c-6.846-2.342-25.819-6.615-38.874-3.658
						c-4.929,1.117-10.065,3.38-12.396,8.145c-0.192,0.393,0.304,0.184,0.417-0.026c2.68-4.94,8.562-6.899,13.764-7.461
						c17.334-1.87,34.365,3.537,40.764,4.653C153.568,178.345,153.053,177.828,149.561,176.633z"/>
					<path style="fill:#B4715A;" d="M113.044,169.352c-1.966,0.104-3.818,1.054-5.291,2.321c-0.108,0.093-0.311,0.331-0.242,0.49
						c0.074,0.17,0.301-0.002,0.382-0.066c1.378-1.093,3.07-1.676,4.784-1.981c0.211-0.037,0.398-0.252,0.485-0.437
						C113.23,169.536,113.253,169.341,113.044,169.352z"/>
					<path style="fill:#B4715A;" d="M202.41,224.36c-10.63,5.105-22.62,6.819-34.199,4.09c-0.162-0.038-0.524,0.375-0.341,0.431
						c2.803,0.863,5.489,1.623,8.433,1.866c3.049,0.252,6.126,0.204,9.166-0.145c5.888-0.676,11.736-2.392,16.862-5.396
						C202.711,224.983,203.188,223.987,202.41,224.36z"/>
					<path style="fill:#B4715A;" d="M225.764,192.248c-8.787-5.959-19.75-5.895-29.871-4.293c-0.319,0.051-0.956,0.976-0.444,0.928
						c10.006-0.922,22.126-1.255,31.045,4.112C226.85,193.21,226.081,192.463,225.764,192.248z"/>
					<path style="fill:#B4715A;" d="M226.002,191.014c-0.247-0.264-0.567-0.468-0.892-0.621c-0.756-0.356-1.654-0.466-2.467-0.272
						c-0.053,0.013-0.244,0.225-0.136,0.235c0.784,0.078,1.559,0.049,2.299,0.367c0.617,0.265,1.202,0.77,1.556,1.341
						c0.036,0.058,0.145-0.071,0.133-0.12C226.402,191.592,226.253,191.281,226.002,191.014z"/>
				</g>
			</g>
			
				<radialGradient id="SVGID_00000085948293123326480070000016406429967335150730_" cx="91.8439" cy="199.626" r="16.2463" gradientTransform="matrix(1 0 0 1 89.025 0)" gradientUnits="userSpaceOnUse">
				<stop  offset="0" style="stop-color:#F37422"/>
				<stop  offset="1" style="stop-color:#FFFFFF"/>
			</radialGradient>
			<path style="opacity:0.51;fill:url(#SVGID_00000085948293123326480070000016406429967335150730_);" d="M189.568,186.402
				c-0.795-0.317-1.618-0.539-2.454-0.676c0.478,0.188,0.949,0.395,1.412,0.622c0.246,0.121,0.03,0.489-0.215,0.368
				c-0.861-0.424-1.751-0.784-2.668-1.069c-0.091-0.028-0.184-0.053-0.275-0.079c-0.429-0.007-0.859,0.006-1.288,0.045
				c-0.231,0.021-0.263-0.279-0.104-0.387c-2.913-0.584-5.947-0.388-8.766,0.607c-3.081,1.087-5.857,3.09-7.835,5.694
				c-1.878,2.47-3.049,5.501-3.007,8.627c0.046,3.452,1.623,6.63,4.012,9.072c2.556,2.612,5.829,4.407,9.354,5.327
				c3.324,0.868,6.891,1.007,10.24,0.195c3.204-0.776,6.202-2.487,8.177-5.171c2.151-2.922,2.996-6.687,2.587-10.266
				c-0.42-3.675-2.087-7.261-4.695-9.891C192.767,188.135,191.252,187.073,189.568,186.402z"/>
			<path style="fill:#FDD4B5;" d="M143.599,249.693c0,0,7.475,8.543,16.152,1.468C154.011,259.171,145.601,259.171,143.599,249.693z
				"/>
			<path style="fill:#FDD4B5;" d="M127.469,145.979c0,0,22.318-5.952,25.592,20.235
				C155.441,143.598,146.812,131.993,127.469,145.979z"/>
			<path style="fill:#FDD4B5;" d="M202.123,167.793c0,0,17.413-10.867,22.105,6.422C227.44,163.965,220.524,150.257,202.123,167.793
				z"/>
		</g>
		<g>
			<path style="fill:#D3D3D3;" d="M274.281,55.343c-1.369-2.481-2.846-4.933-4.405-7.345c-6.061,4.704-23.958-16.67-12.639,7.586
				c19.415,61.233-39.328,79.155-28.376,65.714c10.952-13.441,5.476-29.372,5.476-29.372s-4.978,37.337-30.367,35.844
				c-25.389-1.493-34.848-23.398-17.922-38.831c31.861-33.355-1.991-64.718,20.909-74.674c6.245-2.715,13.23-2.939,20.088-1.844
				c-15.236-4.872-33.142-4.099-53.573,5.959c-6.379-6.521-14.431-10.5-23.248-12.35c9.79,4.34,19.59,10.905,24.375,20.681
				c11.45,23.398,0.498,54.264-17.922,58.246c7.965-8.463,9.459-20.411,5.476-31.363c0,0,2.987,35.346-28.376,39.328
				c-31.363,3.983-45.303-11.45-51.774-31.363c0,0-6.472,17.424,2.987,29.372c9.459,11.948,2.987,38.831-25.389,39.826
				c-28.376,0.996-36.84-11.45-40.822-24.891c-0.498,8.463,1.991,25.887,11.948,35.346c9.358,8.891-13.826,18.21-24.5-17.493
				c0.691,4.281,1.665,8.624,2.963,13.021c14.188,46.672,42.938,26.51,44.805,22.402c8.961,8.961,18.295,7.841,22.402,3.734
				c-7.841,25.389,4.48,38.457,16.802,34.724c-15.308-10.454-7.094-23.896-2.987-29.87c3.36-5.974-5.601-10.454,1.493-25.016
				c7.841-14.188,15.308-33.603,13.441-47.792c17.548,5.974,44.805,4.854,60.86-4.48c0,0-7.009,35.967,22.486,44.444
				c19.428,4.769,44.508-5.298,44.508-5.298s1.06,9.361,13.953,8.654c-0.136,4.754,11.023,9.907,21.789,4.057
				c-7.838,0.732-13.13-5.247-11.004-12.537c-8.463,7.467-18.42,2.987-11.45-0.996c24.394-12.943,22.9-47.294,24.891-67.207
				c0.36-3.599,1.574-5.34,3.316-5.808C274.417,55.614,274.357,55.48,274.281,55.343z"/>
		</g>
		<path style="fill:#EAE9E9;" d="M85.728,153.474c0,0-1.005,3.768,1.507,8.289c2.512,4.521-2.763,7.284-4.772,13.312
			c-2.009,6.028-3.563,13.722,2.488,19.169c-12.033-6.359-11.53-20.173-7.512-27.708C81.458,159,77.942,158.247,85.728,153.474z"/>
		<path style="fill:#EAE9E9;" d="M94.13,126.695c0,0-25.35,26.733-49.317,15.671C62.328,165.872,91.365,147.897,94.13,126.695z"/>
		<g>
			<path style="fill:#EAE9E9;" d="M37.02,114.049c-5.704-10.821-11.58-22.485-10.228-34.642
				c8.59,12.576,20.227,23.055,33.632,30.284c-7.88-8.406-13.846-18.835-15.819-30.187C42.634,68.154,44.917,55.88,51.88,46.7
				c2.428,16.705,11.307,32.388,24.381,43.067C63.24,71.826,65.092,44.652,80.426,28.642c0.221,11.773,4.244,23.445,11.326,32.853
				c-2.032-6.016-4.085-12.147-4.228-18.496c-0.142-6.348,1.922-13.065,6.848-17.073c-2.664,19.784,8.545,40.669,26.504,49.386
				c-5.889-6.53-12.09-13.765-12.684-22.538c-0.679-10.025,6.217-20.068,3.174-29.645c9.214,8.872,14.438,21.742,14.013,34.526
				c5.651-12.466,5.709-27.344,0.156-39.854c15.152,12.134,23.02,32.741,19.81,51.886c9.054-12.514,10.489-30.116,3.58-43.931
				c-4.523-9.044-12.499-16.178-21.795-20.117c-7.594,1.159-15.201,3.469-22.359,6.764c-40.755,0.252-79.099,25.61-93.636,63.016
				C16.065,90.066,25.546,103.512,37.02,114.049z"/>
		</g>
		<g>
			<path style="fill:#EAE9E9;" d="M210.113,19.132c-1.064,1.593-1.296,3.588-1.385,5.501c-0.535,11.521,3.048,22.98,2.154,34.479
				c-0.953,12.248-7.24,23.988-16.908,31.568c9.611-5.851,18.629-13.028,25.004-22.3c5.244-7.627,8.559-16.811,8.509-26.002
				c-0.132-1.98-0.299-3.958-0.509-5.931c0.339,1.967,0.498,3.949,0.509,5.931c0.955,14.34-0.12,28.814-3.2,42.852
				c5.16-7.618,9.39-15.867,12.563-24.503c5.228,12.019,10.567,25.121,7.484,37.86c6.581-10.046,8.524-22.622,7.291-34.568
				c-1.232-11.946-5.427-23.39-10.325-34.355c3.626-1.424,6.969,2.361,10.448,4.113c2.463,1.24,5.24,1.387,7.925,0.786
				c-9.127-10.202-20.339-18.435-33.531-22.432c-3.922,0.731-7.757,1.914-11.385,3.584C212.99,16.53,211.196,17.512,210.113,19.132z
				"/>
		</g>
		<path style="fill:#EAE9E9;" d="M275.63,72.88c0,0,0.915,30.199-13.269,47.128c13.727-5.033,15.557-27.911,15.557-27.911
			s4.576,26.996-10.066,41.638C287.984,124.126,291.644,87.979,275.63,72.88z"/>
		<path style="fill:#EAE9E9;" d="M285.143,141.384c0,0-3.172,20.389-26.732,16.311C265.208,169.475,283.784,166.757,285.143,141.384
			z"/>
		<path style="fill:#EAE9E9;" d="M247.28,178.05c0,0,8.463,19.415-0.996,29.87C258.233,202.942,259.228,185.518,247.28,178.05z"/>
	</g>
	<g>
		<g>
			<g>
				<g>
					<path style="fill:#E0A05B;" d="M123.557,160.945l-34.146-4.288c0.039,0.243,0.069,0.487,0.113,0.727
						c0.236,1.272,0.54,2.529,0.804,3.794l32.587,4.081c0.076,0.01,0.151,0.017,0.225,0.02c1.21,0.055,2.281-0.743,2.448-1.866
						C125.765,162.223,124.855,161.117,123.557,160.945z"/>
					<g style="opacity:0.51;">
						<path style="fill:#E0A05B;" d="M123.557,160.945l-7.092-0.94l-0.739,2.059c0,0-12.671-1.455-25.892-3.232
							c0.173,0.781,0.331,1.565,0.494,2.348l32.587,4.081c0.076,0.01,0.151,0.017,0.224,0.02c1.21,0.055,2.281-0.743,2.448-1.866
							C125.765,162.223,124.855,161.117,123.557,160.945z"/>
					</g>
					<path style="fill:#BC732A;" d="M125.605,161.467c-0.481-0.585-1.18-0.964-1.967-1.069l-34.315-4.31
						c0.044,0.381,0.109,0.76,0.177,1.137l33.976,4.265c0.469,0.062,0.884,0.288,1.172,0.637c0.287,0.348,0.409,0.777,0.344,1.207
						c-0.13,0.888-1.034,1.503-1.996,1.378l-32.786-4.108c0.084,0.381,0.165,0.762,0.238,1.146l32.388,4.055
						c0.096,0.012,0.189,0.021,0.279,0.025c1.542,0.07,2.861-0.935,3.068-2.337C126.29,162.772,126.085,162.052,125.605,161.467z"/>
				</g>
				<path style="fill:#E0A05B;" d="M89.53,157.411c0.038,0.201,0.088,0.4,0.129,0.601c10.761,1.236,21.352,2.079,21.352,2.079
					L89.53,157.411z"/>
			</g>
			<g>
				<g>
					<path style="fill:#E0A05B;" d="M249.383,183.347l-17.779-2.232c-0.038,0.278-0.067,0.554-0.135,0.841
						c-0.211,0.886-0.44,1.767-0.692,2.642c-0.074,0.259-0.149,0.523-0.223,0.786l18.187,2.278c0.076,0.01,0.151,0.017,0.225,0.02
						c1.21,0.055,2.281-0.743,2.448-1.865C251.591,184.625,250.682,183.519,249.383,183.347z"/>
					<g style="opacity:0.51;">
						<path style="fill:#E0A05B;" d="M249.383,183.347l-7.092-0.94l-0.739,2.059c0,0-4.272-0.491-10.413-1.246
							c-0.12,0.46-0.23,0.923-0.361,1.38c-0.074,0.259-0.149,0.523-0.223,0.786l18.187,2.278c0.076,0.01,0.151,0.017,0.225,0.02
							c1.21,0.055,2.281-0.743,2.448-1.865C251.591,184.625,250.682,183.519,249.383,183.347z"/>
					</g>
					<path style="fill:#BC732A;" d="M251.431,183.869c-0.481-0.585-1.18-0.964-1.967-1.069l-17.784-2.234
						c-0.028,0.361-0.089,0.726-0.163,1.094l17.784,2.233c0.469,0.062,0.884,0.288,1.171,0.637c0.287,0.348,0.409,0.777,0.344,1.207
						c-0.13,0.888-1.034,1.503-1.996,1.378l-18.114-2.27c-0.102,0.356-0.203,0.715-0.306,1.076l18.26,2.286
						c0.096,0.012,0.189,0.02,0.278,0.025c1.542,0.07,2.861-0.935,3.068-2.337C252.116,185.174,251.912,184.454,251.431,183.869z"/>
				</g>
			</g>
			<g>
				<g>
					<path style="fill:#E0A05B;" d="M195.755,176.878c-0.199-1.965-2.127-2.892-3.727-3.657c-1.921-0.919-4.015-1.5-6.143-1.641
						c-1.837-0.121-3.744,0.137-5.482,0.75c-0.906,0.32-1.779,0.76-2.586,1.28c-0.627,0.404-1.47,0.997-1.664,1.764
						c-0.083,0.33,0.235,0.4,0.503,0.343c1.312-0.279,2.453-1.162,3.743-1.563c1.429-0.443,2.911-0.542,4.397-0.405
						c2.99,0.277,6.782,1.617,8.535,4.212C193.911,178.817,195.849,177.801,195.755,176.878z"/>
					<path style="opacity:0.51;fill:#E0A05B;" d="M195.756,176.878c-0.156-1.543-1.379-2.442-2.671-3.129
						c-0.128,0.2-0.238,0.405-0.382,0.604c-0.166,0.231-0.484,0.497-0.793,0.394c-1.658-0.557-3.34-1.005-5.05-1.369
						c-0.859-0.183-1.723-0.342-2.593-0.47c-1.074-0.157-2.133-0.453-3.22-0.503c-0.119-0.005-0.307-0.049-0.459-0.129
						c-0.061,0.02-0.124,0.033-0.185,0.054c-0.906,0.32-1.779,0.76-2.586,1.28c-0.627,0.404-1.47,0.997-1.663,1.764
						c-0.083,0.33,0.235,0.4,0.503,0.343c1.312-0.279,2.453-1.162,3.743-1.563c1.429-0.443,2.911-0.542,4.397-0.405
						c2.99,0.277,6.782,1.617,8.535,4.212C193.911,178.817,195.849,177.801,195.756,176.878z"/>
					<path style="fill:#BC732A;" d="M176.125,176.197c-0.115-0.043-0.218-0.108-0.3-0.194c-0.186-0.194-0.253-0.471-0.179-0.758
						c0.227-0.908,1.081-1.56,1.887-2.078c0.868-0.561,1.776-1.009,2.697-1.334c1.802-0.635,3.769-0.905,5.691-0.779
						c2.121,0.14,4.308,0.723,6.334,1.691c1.691,0.809,3.796,1.817,4.026,4.079l0,0c0.083,0.821-0.698,1.549-1.513,1.845
						c-0.791,0.285-1.502,0.128-1.87-0.415c-1.714-2.54-5.459-3.734-8.147-3.983c-1.512-0.14-2.923-0.01-4.195,0.383
						c-0.535,0.165-1.046,0.423-1.588,0.696c-0.692,0.349-1.409,0.71-2.201,0.878C176.534,176.28,176.312,176.266,176.125,176.197z
						 M190.377,173.092c-1.484-0.551-3.024-0.888-4.527-0.987c-1.779-0.117-3.602,0.133-5.271,0.721
						c-0.844,0.298-1.678,0.709-2.477,1.226c-0.302,0.194-0.926,0.596-1.252,1.065c0.576-0.165,1.097-0.429,1.644-0.704
						c0.557-0.281,1.132-0.57,1.75-0.762c1.404-0.435,2.951-0.579,4.601-0.426c2.915,0.268,7,1.595,8.923,4.442
						c0.091,0.132,0.393,0.103,0.641,0.014c0.504-0.182,0.842-0.575,0.824-0.749c-0.169-1.675-1.902-2.505-3.432-3.237
						C191.334,173.471,190.859,173.27,190.377,173.092z"/>
				</g>
				<g>
					<path style="fill:#E0A05B;" d="M210.185,207.753c-2.222-0.825-4.334-1.901-6.293-3.221
						c-6.29-4.238-10.249-10.458-11.149-17.517c-1.844-14.453,9.928-27.905,26.239-29.985c7.849-1.001,15.582,0.749,21.778,4.922
						c6.289,4.238,10.249,10.459,11.149,17.517c1.844,14.453-9.928,27.905-26.24,29.985
						C220.303,210.139,214.989,209.537,210.185,207.753z M232.897,162.958c-4.126-1.532-8.706-2.046-13.344-1.454
						c-13.846,1.767-23.867,12.955-22.338,24.943c0.734,5.75,4,10.845,9.196,14.347c5.289,3.562,11.927,5.051,18.688,4.188
						c13.845-1.766,23.865-12.955,22.335-24.944c-0.733-5.75-3.998-10.844-9.194-14.346
						C236.579,164.573,234.786,163.659,232.897,162.958z"/>
					<g>
						<path style="opacity:0.51;fill:#E0A05B;" d="M249.386,179.791c-0.823-6.456-4.446-12.146-10.198-16.023
							c-5.668-3.817-12.742-5.418-19.921-4.502c-14.92,1.903-25.688,14.207-24.001,27.428c0.823,6.456,4.445,12.146,10.198,16.023
							c1.792,1.207,3.724,2.192,5.756,2.946c4.395,1.632,9.256,2.182,14.164,1.555C240.305,205.316,251.073,193.011,249.386,179.791
							z M225.1,204.982c-6.761,0.862-13.399-0.626-18.688-4.188c-5.196-3.502-8.462-8.597-9.196-14.347
							c-1.529-11.987,8.492-23.176,22.338-24.943c4.638-0.591,9.218-0.077,13.344,1.454c1.889,0.701,3.682,1.616,5.343,2.734
							c5.196,3.502,8.461,8.597,9.194,14.346C248.965,192.026,238.945,203.216,225.1,204.982z"/>
					</g>
					<path style="fill:#BC732A;" d="M210.001,208.246c-2.272-0.843-4.427-1.947-6.402-3.277
						c-6.417-4.324-10.457-10.676-11.377-17.887c-1.879-14.74,10.095-28.455,26.693-30.573c7.972-1.015,15.835,0.762,22.139,5.007
						c6.416,4.325,10.457,10.677,11.377,17.887c0.911,7.141-1.375,14.26-6.438,20.045c-5.045,5.767-12.241,9.505-20.257,10.528
						C220.344,210.664,214.903,210.066,210.001,208.246z M234.287,159.225c-4.728-1.755-9.957-2.347-15.239-1.673
						c-16.025,2.043-27.591,15.231-25.783,29.398c0.88,6.905,4.76,12.995,10.921,17.146c6.026,4.061,13.777,5.812,21.416,4.835
						c7.762-0.989,14.723-4.603,19.6-10.176c4.86-5.556,7.056-12.381,6.185-19.221c-0.881-6.904-4.758-12.993-10.921-17.146
						C238.542,161.093,236.468,160.035,234.287,159.225z M211.57,204.019c-1.927-0.715-3.756-1.648-5.453-2.79
						c-5.325-3.589-8.671-8.815-9.424-14.717c-0.759-5.95,1.206-11.888,5.533-16.72c4.309-4.81,10.439-7.938,17.26-8.811
						c6.821-0.867,13.703,0.675,19.048,4.274c5.323,3.588,8.669,8.814,9.422,14.717c0.759,5.951-1.205,11.89-5.533,16.721
						c-4.307,4.811-10.437,7.939-17.258,8.81C220.443,206.106,215.777,205.581,211.57,204.019z M232.714,163.451
						c-4.06-1.507-8.589-2-13.094-1.425c-6.571,0.838-12.47,3.845-16.609,8.467c-4.122,4.601-5.995,10.243-5.273,15.887
						c0.713,5.598,3.898,10.561,8.967,13.977c5.19,3.496,11.696,4.95,18.328,4.103c6.572-0.837,12.47-3.845,16.609-8.467
						c4.12-4.601,5.993-10.243,5.271-15.887c-0.713-5.598-3.897-10.562-8.965-13.976
						C236.334,165.042,234.572,164.14,232.714,163.451z"/>
				</g>
				<path style="fill:#E0A05B;" d="M238.309,161.786c0,0,18.104,9.544,10.734,29.397
					C252.534,185.326,254.195,169.19,238.309,161.786z"/>
				<g>
					<path style="fill:#E0A05B;" d="M134.839,199.062c-2.222-0.825-4.334-1.901-6.293-3.221
						c-6.289-4.238-10.249-10.459-11.149-17.517c-1.844-14.453,9.928-27.905,26.239-29.985c7.849-1.001,15.582,0.749,21.778,4.922
						c6.289,4.238,10.249,10.458,11.149,17.517c1.844,14.453-9.928,27.905-26.24,29.985
						C144.958,201.447,139.643,200.846,134.839,199.062z M157.552,154.267c-4.126-1.532-8.706-2.046-13.344-1.454
						c-13.846,1.767-23.867,12.955-22.338,24.943c0.734,5.75,4,10.845,9.196,14.347c5.289,3.562,11.927,5.051,18.688,4.189
						c13.845-1.766,23.865-12.955,22.335-24.944c-0.733-5.75-3.998-10.844-9.194-14.346
						C161.234,155.882,159.441,154.968,157.552,154.267z"/>
					<g>
						<path style="opacity:0.51;fill:#E0A05B;" d="M174.041,171.1c-0.823-6.456-4.446-12.146-10.198-16.023
							c-5.668-3.817-12.742-5.417-19.921-4.502c-14.92,1.903-25.688,14.207-24.001,27.428c0.823,6.456,4.445,12.146,10.198,16.023
							c1.792,1.207,3.724,2.192,5.756,2.946c4.395,1.632,9.256,2.182,14.164,1.555C164.96,196.625,175.727,184.32,174.041,171.1z
							 M149.754,196.29c-6.761,0.862-13.399-0.626-18.688-4.189c-5.196-3.502-8.462-8.597-9.196-14.347
							c-1.529-11.987,8.492-23.176,22.338-24.943c4.638-0.591,9.218-0.077,13.344,1.454c1.889,0.701,3.682,1.615,5.343,2.734
							c5.196,3.502,8.461,8.597,9.194,14.346C173.619,183.335,163.599,194.524,149.754,196.29z"/>
					</g>
					<path style="fill:#BC732A;" d="M134.656,199.555c-2.272-0.843-4.427-1.947-6.402-3.277
						c-6.417-4.324-10.457-10.676-11.377-17.887c-1.879-14.74,10.095-28.455,26.693-30.574c7.972-1.015,15.835,0.762,22.139,5.007
						c6.416,4.325,10.457,10.677,11.377,17.887c0.911,7.141-1.375,14.26-6.438,20.045c-5.046,5.767-12.24,9.505-20.257,10.528
						C144.998,201.973,139.557,201.375,134.656,199.555z M158.942,150.534c-4.728-1.755-9.957-2.347-15.239-1.673
						c-16.025,2.043-27.591,15.231-25.783,29.397c0.88,6.905,4.76,12.995,10.92,17.146c6.026,4.061,13.777,5.812,21.416,4.835
						c7.762-0.989,14.723-4.603,19.6-10.176c4.86-5.556,7.056-12.381,6.185-19.221c-0.88-6.904-4.758-12.993-10.921-17.146
						C163.197,152.402,161.123,151.344,158.942,150.534z M136.225,195.328c-1.927-0.715-3.756-1.647-5.453-2.79
						c-5.325-3.589-8.671-8.815-9.423-14.717c-0.759-5.95,1.206-11.888,5.533-16.72c4.309-4.81,10.439-7.939,17.26-8.811
						c6.821-0.867,13.703,0.675,19.048,4.274c5.323,3.588,8.669,8.814,9.422,14.717c0.759,5.951-1.205,11.89-5.533,16.721
						c-4.307,4.811-10.437,7.939-17.257,8.81C145.097,197.415,140.432,196.89,136.225,195.328z M157.369,154.759
						c-4.06-1.507-8.589-2-13.094-1.425c-6.572,0.837-12.47,3.845-16.609,8.467c-4.122,4.601-5.995,10.243-5.273,15.887
						c0.713,5.598,3.898,10.561,8.967,13.977c5.191,3.496,11.696,4.95,18.328,4.103c6.572-0.838,12.47-3.845,16.609-8.467
						c4.12-4.601,5.993-10.243,5.271-15.887c-0.713-5.598-3.897-10.562-8.965-13.976
						C160.988,156.351,159.227,155.449,157.369,154.759z"/>
				</g>
				<path style="fill:#E0A05B;" d="M162.963,153.095c0,0,18.104,9.544,10.734,29.397
					C177.189,176.635,178.85,160.498,162.963,153.095z"/>
			</g>
		</g>
	</g>
	<g>
		<path style="fill:#FDD4B5;" d="M230.697,202.614c-0.668-3.123-1.883-6.071-4.081-8.429c-0.142-0.152-0.586,0.339-0.449,0.516
			c3.437,4.455,4.165,10.954,4.038,16.417c-0.137,5.896-2.407,11.04-7.745,13.876c-0.227,0.12-0.891,1.244-0.277,1.079
			c5.682-1.522,8.663-7.874,9.222-13.266C231.758,209.415,231.408,205.939,230.697,202.614z"/>
		<path style="fill:#FDD4B5;" d="M216.606,230.913c-3.931,5.445-8.007,10.49-13.274,14.721c-5.196,4.174-11.091,7.256-17.27,9.706
			c-0.602,0.238-1.513,1.944-0.361,1.593c6.716-2.046,12.912-5.744,18.311-10.199c5.23-4.316,10.25-9.706,13.294-15.821
			C217.638,230.247,216.814,230.626,216.606,230.913z"/>
		<path style="fill:#FDD4B5;" d="M193.585,167.676c-4.728,8.23-5.89,19.599-1.049,28.081c0.244,0.428,1.067-0.445,0.923-0.812
			c-1.745-4.435-2.916-8.879-2.852-13.684c0.063-4.749,1.232-9.485,3.464-13.68C194.309,167.135,193.709,167.46,193.585,167.676z"/>
		<path style="fill:#FDD4B5;" d="M193.959,197.009c-0.193-0.206-0.715,0.417-0.618,0.627c0.633,1.377,1.064,2.858,1.044,4.384
			c-0.019,1.428-0.381,2.883-1.069,4.137c-0.108,0.198-0.121,0.5,0.151,0.53c0.292,0.033,0.589-0.311,0.732-0.516
			c0.986-1.412,1.504-3.075,1.425-4.802C195.552,199.777,195.064,198.188,193.959,197.009z"/>
		<path style="fill:#FDD4B5;" d="M181.969,226.64c-15.761,0.54-31.095-3.731-44.191-12.571c-0.146-0.099-0.488,0.315-0.357,0.41
			c12.581,9.148,28.581,13.956,44.136,13.027C181.874,227.488,182.449,226.624,181.969,226.64z"/>
		<path style="fill:#FDD4B5;" d="M187.133,226.632c-0.527,0.024-1.048,0.065-1.569,0.15c-0.27,0.044-0.539,0.087-0.808,0.131
			c-0.124,0.02-0.249,0.04-0.373,0.06c-0.164,0.027-0.315,0.085-0.472,0.139c-0.135,0.046-0.634,0.593-0.325,0.669
			c0.138,0.034,0.246,0.049,0.39,0.047c0.117-0.002,0.233-0.004,0.35-0.005c0.253-0.004,0.505-0.008,0.758-0.012
			c0.525-0.008,1.043-0.066,1.563-0.136c0.282-0.038,0.554-0.339,0.66-0.587C187.391,226.887,187.421,226.618,187.133,226.632z"/>
	</g>
</g>
</svg>
