<?xml version="1.0" encoding="utf-8"?>
<!-- Generator: Adobe Illustrator 27.5.0, SVG Export Plug-In . SVG Version: 6.00 Build 0)  -->
<svg version="1.1" id="Capa_1" xmlns="http://www.w3.org/2000/svg" xmlns:xlink="http://www.w3.org/1999/xlink" x="0px" y="0px"
	 viewBox="0 0 2372 1898" style="enable-background:new 0 0 2372 1898;" xml:space="preserve">
<polygon style="fill:#637595;" points="1051.302,535.386 708.912,1297.599 708.912,1282.69 651.081,1282.69 651.081,1297.599 
	627.297,1297.599 627.297,1282.69 569.469,1282.69 569.469,1297.599 545.684,1297.599 545.684,1282.69 487.854,1282.69 
	487.854,1297.599 464.069,1297.599 464.069,1282.69 406.242,1282.69 406.242,1297.599 382.457,1297.599 382.457,1282.69 
	324.627,1282.69 324.627,1297.599 300.842,1297.599 300.842,1282.69 243.014,1282.69 243.014,1297.599 219.229,1297.599 
	219.229,1282.69 161.4,1282.69 161.4,1297.599 137.614,1297.599 137.614,1282.69 79.787,1282.69 79.787,1297.599 60.267,1297.599 
	60.267,1361.984 761.139,1361.984 1980.207,1361.984 1980.207,1297.599 1980.207,1297.593 2311.438,560.225 2311.438,535.386 "/>
<rect x="761.139" y="1297.599" style="fill:#4F627D;" width="1219.067" height="64.385"/>
<polygon style="fill:#A2A8BD;" points="2311.438,560.225 2311.438,535.386 1051.302,535.386 1092.371,560.225 "/>
<polygon style="fill:#404D68;" points="1051.302,535.386 708.912,1297.599 708.912,1282.69 651.081,1282.69 651.081,1297.599 
	627.297,1297.599 627.297,1282.69 569.469,1282.69 569.469,1297.599 545.684,1297.599 545.684,1282.69 487.854,1282.69 
	487.854,1297.599 464.069,1297.599 464.069,1282.69 406.242,1282.69 406.242,1297.599 382.457,1297.599 382.457,1282.69 
	324.627,1282.69 324.627,1297.599 300.842,1297.599 300.842,1282.69 243.014,1282.69 243.014,1297.599 219.229,1297.599 
	219.229,1282.69 161.4,1282.69 161.4,1297.599 137.614,1297.599 137.614,1282.69 79.787,1282.69 79.787,1297.599 60.267,1297.599 
	60.267,1361.984 761.139,1361.984 761.139,1297.599 1092.371,560.225 "/>
<path style="fill:#404D68;" d="M1234.151,1245.496c-0.872,0-1.733-0.409-2.275-1.171c-0.893-1.253-0.602-2.996,0.654-3.89
	l801.381-570.369c1.258-0.893,3.007-0.599,3.889,0.654c0.894,1.253,0.605,2.996-0.654,3.889l-801.381,570.369
	C1235.275,1245.328,1234.709,1245.496,1234.151,1245.496z"/>
<path style="fill:#404D68;" d="M1125.656,1129.096c-0.872,0-1.732-0.409-2.274-1.171c-0.894-1.253-0.602-2.996,0.653-3.889
	l557.487-396.778c1.258-0.894,3.001-0.594,3.889,0.654c0.894,1.253,0.605,2.996-0.654,3.889l-557.486,396.778
	C1126.781,1128.927,1126.215,1129.096,1125.656,1129.096z"/>
<path style="fill:#404D68;" d="M1518.046,1220.532c-0.871,0-1.732-0.409-2.277-1.171c-0.893-1.253-0.599-2.996,0.654-3.89
	l557.491-396.777c1.258-0.888,3.001-0.594,3.889,0.653c0.893,1.253,0.599,2.996-0.654,3.89l-557.492,396.778
	C1519.168,1220.363,1518.602,1220.532,1518.046,1220.532z"/>
<path style="fill:#404D68;" d="M850.933,1283.806l-1.114-0.234c-1.411-0.615-2.056-2.26-1.438-3.671l290.506-664.675
	c0.616-1.411,2.264-2.048,3.671-1.438c1.411,0.616,2.057,2.261,1.439,3.671L853.49,1282.134
	C853.033,1283.18,852.009,1283.806,850.933,1283.806z"/>
</svg>
